<svg xmlns="http://www.w3.org/2000/svg" xmlns:xlink="http://www.w3.org/1999/xlink" viewBox="0 0 205.16 42.65"><defs><style>.cls-1{fill:none;}.cls-2{fill:#23232f;}.cls-3{clip-path:url(#clip-path);}.cls-4{fill:url(#linear-gradient);}</style><clipPath id="clip-path" transform="translate(0)"><path class="cls-1" d="M16.8,37.75a2.15,2.15,0,1,0,2.14-2.14,2.14,2.14,0,0,0-2.14,2.14M5.56,31.49a2,2,0,1,0,2.88,0,2.05,2.05,0,0,0-2.88,0m24.06,0a2,2,0,1,0,2.88,0,2.05,2.05,0,0,0-2.88,0M2.25,18.8a2.15,2.15,0,1,0,2.14,2.14A2.14,2.14,0,0,0,2.25,18.8Zm33.5,0a2.15,2.15,0,1,0,2.15,2.14,2.14,2.14,0,0,0-2.15-2.14ZM5.56,7.44A2,2,0,1,0,7,6.84a2,2,0,0,0-1.44.6m24.06,0a2,2,0,1,0,1.44-.6,2,2,0,0,0-1.44.6M16.8,4.14A2.15,2.15,0,1,0,18.94,2,2.14,2.14,0,0,0,16.8,4.14m4.6,7.18a3,3,0,0,1,.29-1.74,5.1,5.1,0,0,1,1-1.47,5,5,0,0,1,1.35-1,2.8,2.8,0,0,1,1.23-.35,3.75,3.75,0,0,1,.26.56A4.82,4.82,0,0,1,25.86,9a4.6,4.6,0,0,1-.26,1.56,3,3,0,0,1-1,1.49,2.32,2.32,0,0,0,3.28,3.29,2.94,2.94,0,0,1,1.37-1,4.92,4.92,0,0,1,3.24-.05,4.06,4.06,0,0,1,.63.27,2.84,2.84,0,0,1-.31,1.11,4.83,4.83,0,0,1-1,1.46,4.75,4.75,0,0,1-1.35,1,3.12,3.12,0,0,1-1.86.35,2.45,2.45,0,0,0,0,4.89,3.08,3.08,0,0,1,1.74.29,5.06,5.06,0,0,1,1.47,1,5.28,5.28,0,0,1,1,1.35,2.76,2.76,0,0,1,.34,1.15,5,5,0,0,1-.5.23,4.82,4.82,0,0,1-1.68.3,4.6,4.6,0,0,1-1.56-.26,3,3,0,0,1-1.49-1,2.33,2.33,0,0,0-3.29,3.29,2.92,2.92,0,0,1,1,1.38,4.51,4.51,0,0,1,.3,1.67,4.86,4.86,0,0,1-.25,1.56,3.17,3.17,0,0,1-.34.75,3.15,3.15,0,0,1-1.09-.31,4.83,4.83,0,0,1-1.46-1,5,5,0,0,1-1-1.35,3.12,3.12,0,0,1-.35-1.86,2.44,2.44,0,1,0-4.88,0,3.1,3.1,0,0,1-.3,1.74,5.2,5.2,0,0,1-2.37,2.44,3,3,0,0,1-1,.33,3.51,3.51,0,0,1-.29-.61,4.82,4.82,0,0,1-.3-1.68,4.6,4.6,0,0,1,.26-1.56,3,3,0,0,1,1-1.49,2.32,2.32,0,0,0-3.28-3.29,2.94,2.94,0,0,1-1.37,1,4.6,4.6,0,0,1-1.68.3,4.86,4.86,0,0,1-1.56-.25,3.68,3.68,0,0,1-.67-.3,2.86,2.86,0,0,1,.34-1.11,5.28,5.28,0,0,1,1-1.35,5.06,5.06,0,0,1,1.47-1,3.09,3.09,0,0,1,1.74-.29,2.45,2.45,0,0,0,0-4.89,3.12,3.12,0,0,1-1.86-.35,4.75,4.75,0,0,1-1.35-1,4.83,4.83,0,0,1-1-1.46,3.11,3.11,0,0,1-.31-1.08,5.48,5.48,0,0,1,.58-.27,4.82,4.82,0,0,1,1.68-.3,4.6,4.6,0,0,1,1.56.26,3,3,0,0,1,1.49,1,2.33,2.33,0,0,0,3.29-3.29,3,3,0,0,1-1-1.37,5,5,0,0,1,0-3.24,3.4,3.4,0,0,1,.29-.67,3.16,3.16,0,0,1,1,.3,5,5,0,0,1,1.47,1,5.07,5.07,0,0,1,1,1.35,3.12,3.12,0,0,1,.35,1.86,2.45,2.45,0,0,0,4.89,0M9.7,3.43a.25.25,0,0,1,0,.09l0,.1A2.36,2.36,0,0,0,9.57,4.8a2.44,2.44,0,0,0,1,1.53,2.4,2.4,0,0,1,.6,1A4.53,4.53,0,0,1,11.48,9a5,5,0,0,1-.26,1.56A4.6,4.6,0,0,1,8.83,13a4.78,4.78,0,0,1-1.68.3,4.86,4.86,0,0,1-1.56-.25,3.31,3.31,0,0,1-1.52-1,2.32,2.32,0,0,0-3.29,0,2.4,2.4,0,0,0-.51.77A2.51,2.51,0,0,0,0,14,2.43,2.43,0,0,0,2.44,16.4a3.33,3.33,0,0,1,1.88.38,5,5,0,0,1,1.35,1,4.83,4.83,0,0,1,1,1.46,4.84,4.84,0,0,1-.05,3.61,5.07,5.07,0,0,1-1,1.34,5.1,5.1,0,0,1-1.47,1,3.11,3.11,0,0,1-1.74.29A2.44,2.44,0,0,0,0,27.92a2.42,2.42,0,0,0,.56,1.56,2.75,2.75,0,0,0,.22.26,2.32,2.32,0,0,0,3.2.07,2.34,2.34,0,0,0,.32-.31,2.5,2.5,0,0,1,1.14-.73,4.53,4.53,0,0,1,1.68-.3,4.9,4.9,0,0,1,1.56.25,4.6,4.6,0,0,1,2.46,2.39,4.78,4.78,0,0,1,.3,1.68,4.64,4.64,0,0,1-.26,1.56,3.11,3.11,0,0,1-.93,1.44l-.06.05,0,0a2.33,2.33,0,0,0-.5,2.54,2.44,2.44,0,0,0,4.72-.87,3.08,3.08,0,0,1,.29-1.74,4.91,4.91,0,0,1,1-1.47,5.07,5.07,0,0,1,1.34-1,4.89,4.89,0,0,1,3.61-.06,5.24,5.24,0,0,1,1.47,1,4.92,4.92,0,0,1,1,1.35,3.33,3.33,0,0,1,.38,1.88,2.43,2.43,0,0,0,4,1.91,2.18,2.18,0,0,0,.42-.33,2.32,2.32,0,0,0,0-3.29,2.84,2.84,0,0,1-1-1.37,4.53,4.53,0,0,1-.3-1.68,5,5,0,0,1,.25-1.56,4.57,4.57,0,0,1,2.39-2.46,4.78,4.78,0,0,1,1.68-.3,4.9,4.9,0,0,1,1.56.25,3,3,0,0,1,1.07.59,2.47,2.47,0,0,0,.89.78A2.33,2.33,0,0,0,38,28.31a2.45,2.45,0,0,0-2.41-2.83,3.08,3.08,0,0,1-1.74-.29,5.2,5.2,0,0,1-2.44-2.37,4.84,4.84,0,0,1-.05-3.61,4.83,4.83,0,0,1,1-1.46,4.75,4.75,0,0,1,1.35-1,3.33,3.33,0,0,1,1.88-.38A2.44,2.44,0,0,0,38,14v-.15a3,3,0,0,0-.11-.67,2.4,2.4,0,0,0-.63-1.14,2.32,2.32,0,0,0-3.29,0,2.84,2.84,0,0,1-1.37,1,4.53,4.53,0,0,1-1.68.3,4.64,4.64,0,0,1-1.56-.26,4.55,4.55,0,0,1-2.46-2.38A4.78,4.78,0,0,1,26.6,9a4.6,4.6,0,0,1,.26-1.56,3.17,3.17,0,0,1,1-1.52A2.34,2.34,0,0,0,26.67,2a2.6,2.6,0,0,0-.74-.11,2.44,2.44,0,0,0-2.44,2.44,3.1,3.1,0,0,1-.3,1.74,5.06,5.06,0,0,1-1,1.47,5.28,5.28,0,0,1-1.35,1,4.84,4.84,0,0,1-3.61.05,4.83,4.83,0,0,1-1.46-1,4.75,4.75,0,0,1-1-1.35,3.32,3.32,0,0,1-.37-1.88,2.44,2.44,0,0,0-4.71-.9"/></clipPath><linearGradient id="linear-gradient" x1="-44.84" y1="5106.86" x2="-43.84" y2="5106.86" gradientTransform="translate(-200770.17 -1723.72) rotate(-90) scale(39.32)" gradientUnits="userSpaceOnUse"><stop offset="0" stop-color="#1daaba"/><stop offset="1" stop-color="#b1f750"/></linearGradient></defs><g id="Layer_2" data-name="Layer 2"><g id="Layer_1-2" data-name="Layer 1"><path class="cls-2" d="M72,0A20.46,20.46,0,0,1,89.66,9.51l-5,3.69A14.44,14.44,0,0,0,72,6.07c-8.44,0-14.88,6.5-14.88,15.26S63.59,36.58,72,36.58a14.44,14.44,0,0,0,12.63-7.13l5,3.69c-3.5,5.82-10,9.51-17.69,9.51-11.76.19-21.95-9.51-21.7-21.32C50,9.51,60.21-.18,72,0Z" transform="translate(0)"/><path class="cls-2" d="M97.6.69h6.63V42H97.6Z" transform="translate(0)"/><path class="cls-2" d="M114.61.69h13C141.06.69,150,9.07,150,21.26c0,12-9,20.7-22.45,20.7h-13ZM127.49,36c9.57,0,15.7-6.13,15.7-14.76s-6.07-14.57-15.7-14.57h-6.25V36Z" transform="translate(0)"/><path class="cls-2" d="M157.88.69h6.63V42h-6.63Z" transform="translate(0)"/><path class="cls-2" d="M184.58,6.63H170.7V.69h34.46V6.63H191.21V42h-6.63Z" transform="translate(0)"/><g class="cls-3"><rect class="cls-4" y="1.89" width="38" height="38.11"/></g></g></g></svg>